<?xml version="1.0" encoding="iso-8859-1"?>
<!-- Generator: Adobe Illustrator 19.0.0, SVG Export Plug-In . SVG Version: 6.00 Build 0)  -->
<svg version="1.1" id="Capa_1" xmlns="http://www.w3.org/2000/svg" xmlns:xlink="http://www.w3.org/1999/xlink" x="0px" y="0px"
	 viewBox="0 0 496 496" style="enable-background:new 0 0 496 496;" xml:space="preserve">
<circle style="fill:#FFA64D;" cx="248" cy="104" r="64"/>
<g>
	<path style="fill:#333333;" d="M160,264c-13.232,0-24-10.768-24-24h-16c0,22.056,17.944,40,40,40s40-17.944,40-40h-16
		C184,253.232,173.232,264,160,264z"/>
	<path style="fill:#333333;" d="M336,264c-13.232,0-24-10.768-24-24h-16c0,22.056,17.944,40,40,40s40-17.944,40-40h-16
		C360,253.232,349.232,264,336,264z"/>
	<path style="fill:#333333;" d="M480,240c0-28.152-20.912-51.456-48-55.36V176c0-10.968-9.512-20-29.104-27.616l-5.8,14.912
		C412.6,169.328,416,174.512,416,176c0,10.856-59.296,32-168,32S80,186.856,80,176c0-1.488,3.4-6.672,18.896-12.696l-5.8-14.912
		C73.512,156,64,165.032,64,176v8.64c-27.088,3.904-48,27.208-48,55.36c0,28.224,21.008,51.568,48.184,55.392
		C66.96,365.048,108.6,424.872,168,453.672V496h16v-35.496C203.944,467.928,225.504,472,248,472s44.056-4.072,64-11.496V496h16
		v-42.328c59.4-28.8,101.04-88.624,103.816-158.288C458.992,291.568,480,268.224,480,240z M32,240c0-19.312,13.768-35.472,32-39.192
		v78.384C45.768,275.472,32,259.312,32,240z M248,456c-92.632,0-168-75.36-168-168v-90.584C114.856,217.936,198.544,224,248,224
		s133.144-6.064,168-26.584V288C416,380.64,340.632,456,248,456z M432,279.192v-78.384c18.232,3.72,32,19.872,32,39.192
		S450.232,275.472,432,279.192z"/>
	<path style="fill:#333333;" d="M72,80c1.728,0,3.408-0.2,5.032-0.552l40.36,65.576c-3.32,4.12-5.392,9.288-5.392,14.976
		c0,13.232,10.768,24,24,24c10,0,18.568-6.152,22.168-14.864l66.248,11.04C226.416,191.424,236.2,200,248,200
		c11.616,0,21.32-8.296,23.52-19.28l67.328-9.616C342.872,178.728,350.792,184,360,184c13.232,0,24-10.768,24-24
		c0-4.288-1.224-8.256-3.2-11.736l34.472-45.96c2.712,1.064,5.64,1.696,8.728,1.696c13.232,0,24-10.768,24-24s-10.768-24-24-24
		c-4.64,0-8.944,1.384-12.624,3.672l-44.76-27.976C367.448,29.272,368,26.712,368,24c0-13.232-10.768-24-24-24
		c-10.64,0-19.576,7-22.712,16.6L181.696,29.896C177.864,21.72,169.616,16,160,16c-11.92,0-21.76,8.76-23.616,20.16L92.72,44.104
		C88.568,36.912,80.888,32,72,32c-13.232,0-24,10.768-24,24S58.768,80,72,80z M147.736,60.52l-15.16,75.824
		c-0.536,0.08-1.088,0.096-1.616,0.208L90.6,70.976c2.552-3.168,4.328-6.952,5.008-11.136l43.672-7.936
		C141.328,55.448,144.224,58.408,147.736,60.52z M183.2,45.824L321.672,32.64c0.072,0.192,0.104,0.408,0.184,0.6l-42.344,34.648
		C271.072,60.504,260.064,56,248,56c-26.472,0-48,21.528-48,48c0,4.872,0.744,9.576,2.096,14.008l-49.48,24.744
		c-1.312-1.264-2.784-2.328-4.352-3.264l15.16-75.824C173.08,62.256,180.856,55.152,183.2,45.824z M344,48
		c4.64,0,8.944-1.384,12.624-3.672l44.76,27.976C400.552,74.728,400,77.288,400,80c0,4.288,1.224,8.256,3.2,11.736l-34.472,45.96
		c-2.712-1.064-5.64-1.696-8.728-1.696c-6.456,0-12.296,2.592-16.616,6.752l-49.48-24.744C295.256,113.576,296,108.872,296,104
		c0-8.64-2.328-16.736-6.344-23.752l43.04-35.208C336.08,46.864,339.888,48,344,48z M248,152c-9.008,0-16.784,5.048-20.888,12.408
		l-61.536-10.256l43.728-21.864C218.048,144.216,232.112,152,248,152s29.952-7.784,38.688-19.712l46.824,23.416l-64.368,9.192
		C265.128,157.272,257.208,152,248,152z M280,104c0,17.648-14.352,32-32,32s-32-14.352-32-32s14.352-32,32-32S280,86.352,280,104z
		 M136,168c-4.416,0-8-3.592-8-8s3.584-8,8-8s8,3.592,8,8S140.416,168,136,168z M248,184c-4.416,0-8-3.592-8-8s3.584-8,8-8
		c4.416,0,8,3.592,8,8S252.416,184,248,184z M360,168c-4.416,0-8-3.592-8-8s3.584-8,8-8s8,3.592,8,8S364.416,168,360,168z M432,80
		c0,4.408-3.584,8-8,8s-8-3.592-8-8s3.584-8,8-8S432,75.592,432,80z M344,16c4.416,0,8,3.592,8,8s-3.584,8-8,8s-8-3.592-8-8
		S339.584,16,344,16z M160,32c4.416,0,8,3.592,8,8s-3.584,8-8,8s-8-3.592-8-8S155.584,32,160,32z M72,48c4.416,0,8,3.592,8,8
		s-3.584,8-8,8s-8-3.592-8-8S67.584,48,72,48z"/>
</g>
<g>
</g>
<g>
</g>
<g>
</g>
<g>
</g>
<g>
</g>
<g>
</g>
<g>
</g>
<g>
</g>
<g>
</g>
<g>
</g>
<g>
</g>
<g>
</g>
<g>
</g>
<g>
</g>
<g>
</g>
</svg>
